<svg width="46" height="46" viewBox="0 0 46 46" fill="none" xmlns="http://www.w3.org/2000/svg">
<path d="M17.6775 31.8198C17.5839 31.7273 17.5095 31.6172 17.4585 31.4958C17.4076 31.3745 17.3811 31.2443 17.3805 31.1127C17.38 30.9807 17.4056 30.8499 17.4559 30.7278C17.5061 30.6057 17.5801 30.4948 17.6734 30.4015C17.7668 30.3081 17.8777 30.2342 17.9997 30.1839C18.1218 30.1337 18.2526 30.1081 18.3846 30.1086L30.1155 30.1157L30.1084 18.3848C30.1084 18.1185 30.2142 17.8631 30.4025 17.6748C30.5908 17.4865 30.8462 17.3807 31.1125 17.3807C31.3788 17.3807 31.6342 17.4865 31.8225 17.6748C32.0108 17.8631 32.1166 18.1185 32.1166 18.3848L32.1166 31.1127C32.1172 31.2447 32.0916 31.3755 32.0413 31.4976C31.991 31.6196 31.9171 31.7306 31.8237 31.8239C31.7304 31.9172 31.6195 31.9912 31.4974 32.0415C31.3754 32.0917 31.2445 32.1173 31.1125 32.1168H18.3846C18.253 32.1162 18.1228 32.0897 18.0015 32.0388C17.8801 31.9878 17.77 31.9134 17.6775 31.8198Z" fill="black"/>
<path d="M30.4055 31.8198L13.435 14.8493C13.2474 14.6618 13.1421 14.4074 13.1421 14.1422C13.1421 13.877 13.2474 13.6226 13.435 13.4351C13.6225 13.2475 13.8769 13.1422 14.1421 13.1422C14.4073 13.1422 14.6617 13.2475 14.8492 13.4351L31.8198 30.4056C32.0073 30.5932 32.1127 30.8475 32.1127 31.1127C32.1127 31.378 32.0073 31.6323 31.8198 31.8198C31.6322 32.0074 31.3779 32.1127 31.1127 32.1127C30.8474 32.1127 30.5931 32.0074 30.4055 31.8198Z" fill="black"/>
</svg>
