<svg width="222" height="23" viewBox="0 0 222 23" fill="none" xmlns="http://www.w3.org/2000/svg">
<path d="M0.35 15.85H2.75C2.75 17.03 3.24 18.03 4.22 18.85C5.22 19.65 6.58 20.05 8.3 20.05C10.06 20.05 11.37 19.71 12.23 19.03C13.11 18.33 13.55 17.42 13.55 16.3C13.55 14.46 12.35 13.31 9.95 12.85L5.9 12.1C2.5 11.46 0.8 9.66 0.8 6.7C0.8 4.94 1.45 3.5 2.75 2.38C4.05 1.26 5.8 0.699999 8 0.699999C10.34 0.699999 12.22 1.32 13.64 2.56C15.08 3.78 15.8 5.31 15.8 7.15H13.4C13.4 5.97 12.91 4.98 11.93 4.18C10.97 3.36 9.66 2.95 8 2.95C6.48 2.95 5.3 3.3 4.46 4C3.62 4.7 3.2 5.6 3.2 6.7C3.2 8.46 4.35 9.56 6.65 10L9.95 10.6C12.03 10.98 13.55 11.63 14.51 12.55C15.47 13.47 15.95 14.72 15.95 16.3C15.95 18.08 15.28 19.53 13.94 20.65C12.6 21.75 10.72 22.3 8.3 22.3C5.9 22.3 3.97 21.68 2.51 20.44C1.07 19.18 0.35 17.65 0.35 15.85ZM20.0211 19.45V9.1H17.6211V7H20.0211V2.8H22.2711V7H25.7211V9.1H22.2711V19C22.2711 19.6 22.5711 19.9 23.1711 19.9H25.7211V22H22.7211C21.8811 22 21.2211 21.77 20.7411 21.31C20.2611 20.85 20.0211 20.23 20.0211 19.45ZM28.5805 16V7H30.8305V16C30.8305 17.2 31.2205 18.2 32.0005 19C32.7805 19.8 33.7405 20.2 34.8805 20.2C36.0805 20.2 37.1005 19.79 37.9405 18.97C38.8005 18.13 39.2305 17.14 39.2305 16V7H41.4805V22H39.5305L39.2305 20.35H39.0805C38.7205 20.77 38.3405 21.1 37.9405 21.34C36.9405 21.98 35.8205 22.3 34.5805 22.3C32.8405 22.3 31.4005 21.72 30.2605 20.56C29.1405 19.38 28.5805 17.86 28.5805 16ZM56.9398 22L56.6398 19.9H56.4898C55.2298 21.5 53.6298 22.3 51.6898 22.3C49.7098 22.3 48.0598 21.58 46.7398 20.14C45.4398 18.68 44.7898 16.8 44.7898 14.5C44.7898 12.2 45.4398 10.33 46.7398 8.89C48.0598 7.43 49.7098 6.7 51.6898 6.7C53.6298 6.7 55.2298 7.5 56.4898 9.1H56.6398V0.999999H58.8898V22H56.9398ZM48.4498 18.61C49.3898 19.67 50.5198 20.2 51.8398 20.2C53.1598 20.2 54.2898 19.67 55.2298 18.61C56.1698 17.55 56.6398 16.18 56.6398 14.5C56.6398 12.82 56.1698 11.45 55.2298 10.39C54.2898 9.33 53.1598 8.8 51.8398 8.8C50.5198 8.8 49.3898 9.33 48.4498 10.39C47.5098 11.45 47.0398 12.82 47.0398 14.5C47.0398 16.18 47.5098 17.55 48.4498 18.61ZM63.3887 22V7H65.6387V22H63.3887ZM63.2387 3.85V1.3H65.7887V3.85H63.2387ZM81.407 20.14C80.047 21.58 78.337 22.3 76.277 22.3C74.217 22.3 72.497 21.58 71.117 20.14C69.757 18.68 69.077 16.8 69.077 14.5C69.077 12.2 69.757 10.33 71.117 8.89C72.497 7.43 74.217 6.7 76.277 6.7C78.337 6.7 80.047 7.43 81.407 8.89C82.787 10.33 83.477 12.2 83.477 14.5C83.477 16.8 82.787 18.68 81.407 20.14ZM72.737 18.61C73.697 19.67 74.877 20.2 76.277 20.2C77.677 20.2 78.847 19.67 79.787 18.61C80.747 17.55 81.227 16.18 81.227 14.5C81.227 12.82 80.747 11.45 79.787 10.39C78.847 9.33 77.677 8.8 76.277 8.8C74.877 8.8 73.697 9.33 72.737 10.39C71.797 11.45 71.327 12.82 71.327 14.5C71.327 16.18 71.797 17.55 72.737 18.61ZM93.9781 22V0.999999H98.0281L107.478 19.15H108.078V0.999999H110.478V22H106.428L96.9781 3.85H96.3781V22H93.9781ZM115.127 22V7H117.377V22H115.127ZM114.977 3.85V1.3H117.527V3.85H114.977ZM132.365 17.05H134.615C134.235 18.71 133.455 20 132.275 20.92C131.115 21.84 129.695 22.3 128.015 22.3C125.955 22.3 124.235 21.58 122.855 20.14C121.495 18.68 120.815 16.8 120.815 14.5C120.815 12.2 121.495 10.33 122.855 8.89C124.235 7.43 125.955 6.7 128.015 6.7C129.675 6.7 131.095 7.16 132.275 8.08C133.455 8.98 134.235 10.22 134.615 11.8H132.365C132.065 10.84 131.535 10.1 130.775 9.58C130.015 9.06 129.095 8.8 128.015 8.8C126.615 8.8 125.435 9.33 124.475 10.39C123.535 11.45 123.065 12.82 123.065 14.5C123.065 16.18 123.535 17.55 124.475 18.61C125.435 19.67 126.615 20.2 128.015 20.2C130.315 20.2 131.765 19.15 132.365 17.05ZM137.773 22V0.999999H140.023V8.65H140.173C140.493 8.25 140.863 7.93 141.283 7.69C142.323 7.03 143.453 6.7 144.673 6.7C146.413 6.7 147.843 7.29 148.963 8.47C150.103 9.63 150.673 11.14 150.673 13V22H148.423V13C148.423 11.8 148.033 10.8 147.253 10C146.473 9.2 145.513 8.8 144.373 8.8C143.173 8.8 142.143 9.22 141.283 10.06C140.443 10.88 140.023 11.86 140.023 13V22H137.773ZM166.309 20.14C164.949 21.58 163.239 22.3 161.179 22.3C159.119 22.3 157.399 21.58 156.019 20.14C154.659 18.68 153.979 16.8 153.979 14.5C153.979 12.2 154.659 10.33 156.019 8.89C157.399 7.43 159.119 6.7 161.179 6.7C163.239 6.7 164.949 7.43 166.309 8.89C167.689 10.33 168.379 12.2 168.379 14.5C168.379 16.8 167.689 18.68 166.309 20.14ZM157.639 18.61C158.599 19.67 159.779 20.2 161.179 20.2C162.579 20.2 163.749 19.67 164.689 18.61C165.649 17.55 166.129 16.18 166.129 14.5C166.129 12.82 165.649 11.45 164.689 10.39C163.749 9.33 162.579 8.8 161.179 8.8C159.779 8.8 158.599 9.33 157.639 10.39C156.699 11.45 156.229 12.82 156.229 14.5C156.229 16.18 156.699 17.55 157.639 18.61ZM171.816 22V0.999999H174.066V22H171.816ZM177.205 17.65H179.455C179.455 18.35 179.785 18.95 180.445 19.45C181.125 19.95 182.045 20.2 183.205 20.2C184.345 20.2 185.225 19.99 185.845 19.57C186.485 19.13 186.805 18.59 186.805 17.95C186.805 16.77 185.955 16.02 184.255 15.7L181.705 15.25C178.905 14.79 177.505 13.39 177.505 11.05C177.505 9.79 177.985 8.75 178.945 7.93C179.905 7.11 181.275 6.7 183.055 6.7C184.795 6.7 186.205 7.16 187.285 8.08C188.365 9 188.905 10.09 188.905 11.35H186.655C186.655 10.65 186.325 10.05 185.665 9.55C185.025 9.05 184.155 8.8 183.055 8.8C181.975 8.8 181.155 9.02 180.595 9.46C180.035 9.88 179.755 10.41 179.755 11.05C179.755 12.15 180.555 12.85 182.155 13.15L184.705 13.6C186.205 13.88 187.305 14.38 188.005 15.1C188.705 15.8 189.055 16.75 189.055 17.95C189.055 19.21 188.545 20.25 187.525 21.07C186.525 21.89 185.085 22.3 183.205 22.3C181.405 22.3 179.955 21.84 178.855 20.92C177.755 20 177.205 18.91 177.205 17.65ZM203.634 20.14C202.274 21.58 200.564 22.3 198.504 22.3C196.444 22.3 194.724 21.58 193.344 20.14C191.984 18.68 191.304 16.8 191.304 14.5C191.304 12.2 191.984 10.33 193.344 8.89C194.724 7.43 196.444 6.7 198.504 6.7C200.564 6.7 202.274 7.43 203.634 8.89C205.014 10.33 205.704 12.2 205.704 14.5C205.704 16.8 205.014 18.68 203.634 20.14ZM194.964 18.61C195.924 19.67 197.104 20.2 198.504 20.2C199.904 20.2 201.074 19.67 202.014 18.61C202.974 17.55 203.454 16.18 203.454 14.5C203.454 12.82 202.974 11.45 202.014 10.39C201.074 9.33 199.904 8.8 198.504 8.8C197.104 8.8 195.924 9.33 194.964 10.39C194.024 11.45 193.554 12.82 193.554 14.5C193.554 16.18 194.024 17.55 194.964 18.61ZM208.991 22V7H210.941L211.241 8.65H211.391C211.711 8.25 212.081 7.93 212.501 7.69C213.541 7.03 214.671 6.7 215.891 6.7C217.631 6.7 219.061 7.29 220.181 8.47C221.321 9.63 221.891 11.14 221.891 13V22H219.641V13C219.641 11.8 219.251 10.8 218.471 10C217.691 9.2 216.731 8.8 215.591 8.8C214.391 8.8 213.361 9.22 212.501 10.06C211.661 10.88 211.241 11.86 211.241 13V22H208.991Z" fill="black"/>
</svg>
